<svg width="24" height="24" viewBox="0 0 24 24" fill="none" xmlns="http://www.w3.org/2000/svg">
<path d="M17.2 13.575C16.7667 13.575 16.3417 13.5167 15.925 13.4C15.5083 13.2833 15.1 13.1333 14.7 12.95L15.325 11.05C15.6583 11.2 15.9873 11.325 16.312 11.425C16.6373 11.525 16.9417 11.575 17.225 11.575C17.425 11.575 17.625 11.5417 17.825 11.475C18.025 11.4083 18.2333 11.3083 18.45 11.175C18.85 10.8917 19.25 10.7 19.65 10.6C20.05 10.5 20.4333 10.45 20.8 10.45C21.2167 10.45 21.6457 10.504 22.087 10.612C22.529 10.7207 22.9417 10.8667 23.325 11.05L22.7 12.95C22.3167 12.8167 21.9627 12.7 21.638 12.6C21.3127 12.5 21.0333 12.45 20.8 12.45C20.6 12.45 20.3793 12.4873 20.138 12.562C19.896 12.6373 19.6417 12.7667 19.375 12.95C19.025 13.1833 18.6707 13.346 18.312 13.438C17.954 13.5293 17.5833 13.575 17.2 13.575ZM17.225 9.675C16.7917 9.675 16.3583 9.61667 15.925 9.5C15.4917 9.38333 15.0833 9.23333 14.7 9.05L15.325 7.15C15.7583 7.33333 16.125 7.46667 16.425 7.55C16.725 7.63333 16.9917 7.675 17.225 7.675C17.425 7.675 17.625 7.646 17.825 7.588C18.025 7.52933 18.2333 7.425 18.45 7.275C18.8667 6.99167 19.271 6.8 19.663 6.7C20.0543 6.6 20.4333 6.55 20.8 6.55C21.2167 6.55 21.6333 6.60433 22.05 6.713C22.4667 6.821 22.8917 6.96667 23.325 7.15L22.7 9.05C22.2667 8.9 21.9 8.77933 21.6 8.688C21.3 8.596 21.0333 8.55 20.8 8.55C20.5833 8.55 20.3627 8.58333 20.138 8.65C19.9127 8.71667 19.6583 8.85 19.375 9.05C19.075 9.26667 18.7377 9.425 18.363 9.525C17.9877 9.625 17.6083 9.675 17.225 9.675ZM17.225 17.475C16.7917 17.475 16.3627 17.4167 15.938 17.3C15.5127 17.1833 15.1 17.0333 14.7 16.85L15.325 14.95C15.6917 15.1167 16.0333 15.2457 16.35 15.337C16.6667 15.429 16.9583 15.475 17.225 15.475C17.425 15.475 17.625 15.4457 17.825 15.387C18.025 15.329 18.2333 15.225 18.45 15.075C18.8333 14.8083 19.2417 14.6207 19.675 14.512C20.1083 14.404 20.4917 14.35 20.825 14.35C21.2417 14.35 21.6667 14.4083 22.1 14.525C22.5333 14.6417 22.9417 14.7833 23.325 14.95L22.7 16.85C22.2667 16.7 21.8957 16.5793 21.587 16.488C21.279 16.396 21.0167 16.35 20.8 16.35C20.5667 16.35 20.3293 16.3873 20.088 16.462C19.846 16.5373 19.6083 16.6667 19.375 16.85C19.0917 17.05 18.7623 17.204 18.387 17.312C18.0123 17.4207 17.625 17.475 17.225 17.475ZM10 15V10H13V15H10ZM3 21V6C3 5.16667 3.29167 4.45833 3.875 3.875C4.45833 3.29167 5.16667 3 6 3H10C10.8333 3 11.5417 3.29167 12.125 3.875C12.7083 4.45833 13 5.16667 13 6V8H10C9.45 8 8.97933 8.19567 8.588 8.587C8.196 8.979 8 9.45 8 10V15C8 15.55 8.196 16.021 8.588 16.413C8.97933 16.8043 9.45 17 10 17H13V21H3Z" fill="#101010"/>
</svg>
