<svg width="16" height="16" viewBox="0 0 16 16" fill="none" xmlns="http://www.w3.org/2000/svg">
<path d="M8.0625 13C7.71875 13 7.40375 12.914 7.1175 12.7419C6.83083 12.5702 6.60417 12.3438 6.4375 12.0625C6.32292 11.8542 6.3125 11.6458 6.40625 11.4375C6.5 11.2292 6.67708 11.125 6.9375 11.125C7.04167 11.125 7.14583 11.1562 7.25 11.2188C7.35417 11.2812 7.46354 11.3854 7.57812 11.5312C7.63021 11.6042 7.70042 11.659 7.78875 11.6956C7.8775 11.7319 7.96875 11.75 8.0625 11.75C8.23958 11.75 8.38813 11.69 8.50813 11.57C8.62771 11.4504 8.6875 11.3021 8.6875 11.125C8.6875 10.9479 8.62771 10.7996 8.50813 10.68C8.38813 10.56 8.23958 10.5 8.0625 10.5H2.75C2.57292 10.5 2.42458 10.44 2.305 10.32C2.185 10.2004 2.125 10.0521 2.125 9.875C2.125 9.69792 2.185 9.54937 2.305 9.42937C2.42458 9.30979 2.57292 9.25 2.75 9.25H8.0625C8.58333 9.25 9.02604 9.43229 9.39062 9.79688C9.75521 10.1615 9.9375 10.6042 9.9375 11.125C9.9375 11.6458 9.75521 12.0885 9.39062 12.4531C9.02604 12.8177 8.58333 13 8.0625 13ZM2.75 6.75C2.57292 6.75 2.42458 6.69 2.305 6.57C2.185 6.45042 2.125 6.30208 2.125 6.125C2.125 5.94792 2.185 5.79937 2.305 5.67937C2.42458 5.55979 2.57292 5.5 2.75 5.5H10.5625C10.8333 5.5 11.0573 5.41146 11.2344 5.23438C11.4115 5.05729 11.5 4.83333 11.5 4.5625C11.5 4.29167 11.4115 4.06771 11.2344 3.89063C11.0573 3.71354 10.8333 3.625 10.5625 3.625C10.3854 3.625 10.2267 3.66417 10.0862 3.7425C9.94542 3.82042 9.83333 3.93229 9.75 4.07812C9.66667 4.23438 9.56771 4.35417 9.45312 4.4375C9.33854 4.52083 9.22396 4.5625 9.10938 4.5625C8.89062 4.5625 8.71875 4.48438 8.59375 4.32812C8.46875 4.17188 8.4375 4.00521 8.5 3.82812C8.64583 3.39062 8.90375 3.03896 9.27375 2.77313C9.64333 2.50771 10.0729 2.375 10.5625 2.375C11.1771 2.375 11.6954 2.58583 12.1175 3.0075C12.5392 3.42958 12.75 3.94792 12.75 4.5625C12.75 5.17708 12.5392 5.69521 12.1175 6.11688C11.6954 6.53896 11.1771 6.75 10.5625 6.75H2.75ZM13.3438 11.5625C13.125 11.6563 12.9192 11.6485 12.7262 11.5394C12.5337 11.4298 12.4375 11.25 12.4375 11C12.4375 10.8854 12.4792 10.7733 12.5625 10.6637C12.6458 10.5546 12.7656 10.4583 12.9219 10.375C13.0677 10.2917 13.1796 10.1796 13.2575 10.0388C13.3358 9.89833 13.375 9.73958 13.375 9.5625C13.375 9.29167 13.2865 9.06771 13.1094 8.89062C12.9323 8.71354 12.7083 8.625 12.4375 8.625H2.75C2.57292 8.625 2.42458 8.565 2.305 8.445C2.185 8.32542 2.125 8.17708 2.125 8C2.125 7.82292 2.185 7.67437 2.305 7.55437C2.42458 7.43479 2.57292 7.375 2.75 7.375H12.4375C13.0521 7.375 13.5704 7.58583 13.9925 8.0075C14.4142 8.42958 14.625 8.94792 14.625 9.5625C14.625 10.0104 14.5079 10.4115 14.2738 10.7656C14.0392 11.1198 13.7292 11.3854 13.3438 11.5625Z" fill="#101010"/>
</svg>
