<svg width="24" height="25" viewBox="0 0 24 25" fill="none" xmlns="http://www.w3.org/2000/svg">
<path d="M17.6969 12.868C17.6875 11.2695 18.4117 10.0648 19.8742 9.17656C19.0562 8.00469 17.8187 7.36016 16.1875 7.23594C14.643 7.11406 12.9531 8.13594 12.3344 8.13594C11.6805 8.13594 10.1852 7.27813 9.00859 7.27813C6.58047 7.31563 4 9.21406 4 13.0766C4 14.218 4.20859 15.3969 4.62578 16.6109C5.18359 18.2094 7.19453 22.1258 9.29219 22.0625C10.3891 22.0367 11.1648 21.2844 12.5922 21.2844C13.9773 21.2844 14.6945 22.0625 15.918 22.0625C18.0344 22.032 19.8531 18.4719 20.3828 16.8688C17.5445 15.5305 17.6969 12.95 17.6969 12.868V12.868ZM15.2336 5.71953C16.4219 4.30859 16.3141 3.02422 16.2789 2.5625C15.2289 2.62344 14.0148 3.27734 13.3234 4.08125C12.5617 4.94375 12.1141 6.01016 12.2102 7.2125C13.3445 7.29922 14.3805 6.71563 15.2336 5.71953V5.71953Z" fill="black"/>
</svg>
