<svg width="11" height="14" viewBox="0 0 11 14" fill="none" xmlns="http://www.w3.org/2000/svg">
<path d="M5.375 13.25C5.03125 13.25 4.73708 13.1277 4.4925 12.8831C4.2475 12.6381 4.125 12.3438 4.125 12H6.625C6.625 12.3438 6.50271 12.6381 6.25813 12.8831C6.01312 13.1277 5.71875 13.25 5.375 13.25ZM2.875 11.375V10.125H7.875V11.375H2.875ZM3.03125 9.5C2.3125 9.07292 1.74229 8.5 1.32063 7.78125C0.898542 7.0625 0.6875 6.28125 0.6875 5.4375C0.6875 4.13542 1.14333 3.02875 2.055 2.1175C2.96625 1.20583 4.07292 0.75 5.375 0.75C6.67708 0.75 7.78375 1.20583 8.695 2.1175C9.60667 3.02875 10.0625 4.13542 10.0625 5.4375C10.0625 6.28125 9.85167 7.0625 9.43 7.78125C9.00792 8.5 8.4375 9.07292 7.71875 9.5H3.03125Z" fill="#101010"/>
</svg>
