<svg width="24" height="25" viewBox="0 0 24 25" fill="none" xmlns="http://www.w3.org/2000/svg">
<g clip-path="url(#clip0_131_2376)">
<path d="M19.9922 12.3405C19.9922 11.6696 19.9377 11.1801 19.8199 10.6724H12.1592V13.7004H16.6559C16.5652 14.4529 16.0757 15.5861 14.9877 16.3476L14.9725 16.449L17.3947 18.3254L17.5625 18.3422C19.1037 16.9188 19.9922 14.8246 19.9922 12.3405Z" fill="#4285F4"/>
<path d="M12.1592 20.3186C14.3622 20.3186 16.2116 19.5933 17.5625 18.3422L14.9877 16.3476C14.2987 16.8281 13.374 17.1636 12.1592 17.1636C10.0015 17.1636 8.17018 15.7403 7.51737 13.7729L7.42168 13.7811L4.90305 15.7303L4.87012 15.8218C6.21187 18.4872 8.96793 20.3186 12.1592 20.3186Z" fill="#34A853"/>
<path d="M7.51756 13.7732C7.34531 13.2655 7.24562 12.7215 7.24562 12.1594C7.24562 11.5973 7.34531 11.0533 7.5085 10.5457L7.50394 10.4375L4.95375 8.45703L4.87031 8.49672C4.31731 9.60278 4 10.8448 4 12.1594C4 13.474 4.31731 14.716 4.87031 15.822L7.51756 13.7732Z" fill="#FBBC05"/>
<path d="M12.1592 7.15494C13.6913 7.15494 14.7248 7.81675 15.3141 8.36981L17.6169 6.12144C16.2026 4.80687 14.3622 4 12.1592 4C8.96793 4 6.21187 5.83131 4.87012 8.49669L7.5083 10.5456C8.17018 8.57831 10.0015 7.15494 12.1592 7.15494Z" fill="#EB4335"/>
</g>
<defs>
<clipPath id="clip0_131_2376">
<rect width="16" height="16.375" fill="white" transform="translate(4 4)"/>
</clipPath>
</defs>
</svg>
