<svg width="14" height="12" viewBox="0 0 14 12" fill="none" xmlns="http://www.w3.org/2000/svg">
<path d="M5.125 11.625C4.94792 11.625 4.79958 11.565 4.68 11.445C4.56 11.3254 4.5 11.1771 4.5 11V10.375H2C1.65625 10.375 1.36208 10.2527 1.1175 10.0081C0.8725 9.76313 0.75 9.46875 0.75 9.125V1.625C0.75 1.28125 0.8725 0.986875 1.1175 0.741875C1.36208 0.497292 1.65625 0.375 2 0.375H12C12.3438 0.375 12.6381 0.497292 12.8831 0.741875C13.1277 0.986875 13.25 1.28125 13.25 1.625V9.125C13.25 9.46875 13.1277 9.76313 12.8831 10.0081C12.6381 10.2527 12.3438 10.375 12 10.375H9.5V11C9.5 11.1771 9.44021 11.3254 9.32063 11.445C9.20063 11.565 9.05208 11.625 8.875 11.625H5.125Z" fill="#101010"/>
</svg>
