<svg width="24" height="24" viewBox="0 0 24 24" fill="none" xmlns="http://www.w3.org/2000/svg">
<path d="M10 22.9999C10 22.4499 10.196 21.9789 10.588 21.5869C10.9793 21.1955 11.45 20.9999 12 20.9999V15.2749C12.15 15.3415 12.3083 15.3915 12.475 15.4249C12.6417 15.4582 12.8167 15.4749 13 15.4749C13.7 15.4749 14.2877 15.2372 14.763 14.7619C15.2377 14.2872 15.475 13.6999 15.475 12.9999V12.7749L18.675 13.5499C18.9417 13.6165 19.1833 13.7332 19.4 13.8999C19.6167 14.0665 19.7917 14.2665 19.925 14.4999L22.2 18.5999C22.45 19.0499 22.5417 19.5249 22.475 20.0249C22.4083 20.5249 22.1917 20.9582 21.825 21.3249C21.375 21.7749 20.8377 21.9999 20.213 21.9999C19.5877 21.9999 19.05 21.7749 18.6 21.3249L14 16.7249V20.9999C14.55 20.9999 15.021 21.1955 15.413 21.5869C15.8043 21.9789 16 22.4499 16 22.9999H10ZM7 20.9999H4C3.71667 20.9999 3.47933 20.9039 3.288 20.7119C3.096 20.5205 3 20.2832 3 19.9999C3 19.7165 3.096 19.4792 3.288 19.2879C3.47933 19.0959 3.71667 18.9999 4 18.9999H7C7.28333 18.9999 7.521 19.0959 7.713 19.2879C7.90433 19.4792 8 19.7165 8 19.9999C8 20.2832 7.90433 20.5205 7.713 20.7119C7.521 20.9039 7.28333 20.9999 7 20.9999ZM7.15 16.7499L2.65 15.4749C2.16667 15.3415 1.77067 15.0705 1.462 14.6619C1.154 14.2539 1 13.7915 1 13.2749C1 12.6415 1.221 12.1039 1.663 11.6619C2.10433 11.2205 2.64167 10.9999 3.275 10.9999H11.525C11.2083 11.2332 10.9627 11.5209 10.788 11.8629C10.6127 12.2042 10.525 12.5832 10.525 12.9999C10.525 13.3832 10.6 13.7332 10.75 14.0499C10.9 14.3665 11.1083 14.6415 11.375 14.8749L8.75 16.5499C8.51667 16.6832 8.26267 16.7705 7.988 16.8119C7.71267 16.8539 7.43333 16.8332 7.15 16.7499ZM13 14.4999C12.5833 14.4999 12.2293 14.3539 11.938 14.0619C11.646 13.7705 11.5 13.4165 11.5 12.9999C11.5 12.5832 11.646 12.2292 11.938 11.9379C12.2293 11.6459 12.5833 11.4999 13 11.4999C13.4167 11.4999 13.7707 11.6459 14.062 11.9379C14.354 12.2292 14.5 12.5832 14.5 12.9999C14.5 13.4165 14.354 13.7705 14.062 14.0619C13.7707 14.3539 13.4167 14.4999 13 14.4999ZM15.3 12.0499C15.1167 11.5999 14.821 11.2332 14.413 10.9499C14.0043 10.6665 13.5333 10.5249 13 10.5249C12.8167 10.5249 12.6417 10.5415 12.475 10.5749C12.3083 10.6082 12.15 10.6582 12 10.7249V6.77488C12 6.49155 12.0543 6.22488 12.163 5.97488C12.271 5.72488 12.425 5.50821 12.625 5.32488L16.05 2.12488C16.4333 1.75821 16.8793 1.54988 17.388 1.49988C17.896 1.44988 18.3667 1.55821 18.8 1.82488C19.3333 2.15821 19.6793 2.62888 19.838 3.23688C19.996 3.84555 19.9083 4.41655 19.575 4.94988L15.3 12.0499ZM5 8.99988H2C1.71667 8.99988 1.47933 8.90388 1.288 8.71188C1.096 8.52055 1 8.28321 1 7.99988C1 7.71655 1.096 7.47888 1.288 7.28688C1.47933 7.09555 1.71667 6.99988 2 6.99988H5C5.28333 6.99988 5.521 7.09555 5.713 7.28688C5.90433 7.47888 6 7.71655 6 7.99988C6 8.28321 5.90433 8.52055 5.713 8.71188C5.521 8.90388 5.28333 8.99988 5 8.99988ZM9 4.99988H5C4.71667 4.99988 4.479 4.90388 4.287 4.71188C4.09567 4.52055 4 4.28321 4 3.99988C4 3.71655 4.09567 3.47888 4.287 3.28688C4.479 3.09555 4.71667 2.99988 5 2.99988H9C9.28333 2.99988 9.521 3.09555 9.713 3.28688C9.90433 3.47888 10 3.71655 10 3.99988C10 4.28321 9.90433 4.52055 9.713 4.71188C9.521 4.90388 9.28333 4.99988 9 4.99988Z" fill="#101010"/>
</svg>
