<svg width="32" height="32" viewBox="0 0 32 32" fill="none" xmlns="http://www.w3.org/2000/svg">
<g clip-path="url(#clip0_37_1559)" filter="url(#filter0_d_37_1559)">
<path d="M16 0C9.38346 0 4 5.38346 4 12C4 18.6165 9.38346 24 16 24C22.6165 24 28 18.6165 28 12C28 5.38346 22.6165 0 16 0ZM22.7068 8.84211L15.0376 16.4511C14.5865 16.9023 13.8647 16.9323 13.3835 16.4812L9.32331 12.782C8.84211 12.3308 8.81203 11.5789 9.23308 11.0977C9.68421 10.6165 10.4361 10.5865 10.9173 11.0376L14.1353 13.985L20.9925 7.12782C21.4737 6.64662 22.2256 6.64662 22.7068 7.12782C23.188 7.60902 23.188 8.3609 22.7068 8.84211Z" fill="#101010"/>
</g>
<defs>
<filter id="filter0_d_37_1559" x="0" y="0" width="32" height="32" filterUnits="userSpaceOnUse" color-interpolation-filters="sRGB">
<feFlood flood-opacity="0" result="BackgroundImageFix"/>
<feColorMatrix in="SourceAlpha" type="matrix" values="0 0 0 0 0 0 0 0 0 0 0 0 0 0 0 0 0 0 127 0" result="hardAlpha"/>
<feOffset dy="4"/>
<feGaussianBlur stdDeviation="2"/>
<feComposite in2="hardAlpha" operator="out"/>
<feColorMatrix type="matrix" values="0 0 0 0 0 0 0 0 0 0 0 0 0 0 0 0 0 0 0.25 0"/>
<feBlend mode="normal" in2="BackgroundImageFix" result="effect1_dropShadow_37_1559"/>
<feBlend mode="normal" in="SourceGraphic" in2="effect1_dropShadow_37_1559" result="shape"/>
</filter>
<clipPath id="clip0_37_1559">
<rect width="24" height="24" fill="white" transform="translate(4)"/>
</clipPath>
</defs>
</svg>
