<svg width="24" height="24" viewBox="0 0 24 24" fill="none" xmlns="http://www.w3.org/2000/svg">
<path d="M16.0098 4.41873C15.8774 4.286 15.72 4.18069 15.5468 4.10884C15.3736 4.03698 15.1879 4 15.0004 4C14.8129 4 14.6272 4.03698 14.454 4.10884C14.2807 4.18069 14.1234 4.286 13.9909 4.41873L7.41881 10.9909C7.28607 11.1233 7.18076 11.2807 7.10891 11.4539C7.03706 11.6271 7.00008 11.8128 7.00008 12.0003C7.00008 12.1878 7.03706 12.3735 7.10891 12.5467C7.18076 12.7199 7.28607 12.8773 7.41881 13.0097L13.9909 19.5819C14.1235 19.7144 14.2809 19.8196 14.4541 19.8913C14.6273 19.9631 14.8129 20 15.0004 20C15.1879 20 15.3735 19.9631 15.5467 19.8913C15.7199 19.8196 15.8773 19.7144 16.0098 19.5819C16.1424 19.4493 16.2475 19.2919 16.3193 19.1187C16.391 18.9455 16.4279 18.7599 16.4279 18.5724C16.4279 18.385 16.391 18.1993 16.3193 18.0261C16.2475 17.8529 16.1424 17.6955 16.0098 17.563L10.4543 11.9931L16.0098 6.43762C16.5682 5.8792 16.5539 4.96283 16.0098 4.41873Z" fill="#101010"/>
</svg>
