<svg width="28" height="28" viewBox="0 0 28 28" fill="none" xmlns="http://www.w3.org/2000/svg">
<path d="M14.0003 20.6665C14.3781 20.6665 14.695 20.5385 14.951 20.2825C15.2061 20.0274 15.3337 19.7109 15.3337 19.3332V15.3332H19.367C19.7448 15.3332 20.0559 15.2052 20.3003 14.9492C20.5448 14.6941 20.667 14.3776 20.667 13.9998C20.667 13.6221 20.539 13.3052 20.283 13.0492C20.0279 12.7941 19.7114 12.6665 19.3337 12.6665H15.3337V8.63317C15.3337 8.25539 15.2061 7.94428 14.951 7.69984C14.695 7.45539 14.3781 7.33317 14.0003 7.33317C13.6225 7.33317 13.3061 7.46073 13.051 7.71584C12.795 7.97184 12.667 8.28873 12.667 8.6665V12.6665H8.63366C8.25588 12.6665 7.94477 12.7941 7.70033 13.0492C7.45588 13.3052 7.33366 13.6221 7.33366 13.9998C7.33366 14.3776 7.46121 14.6941 7.71633 14.9492C7.97233 15.2052 8.28921 15.3332 8.66699 15.3332H12.667V19.3665C12.667 19.7443 12.795 20.0554 13.051 20.2998C13.3061 20.5443 13.6225 20.6665 14.0003 20.6665ZM14.0003 27.3332C12.1559 27.3332 10.4225 26.9829 8.80033 26.2825C7.1781 25.5829 5.76699 24.6332 4.56699 23.4332C3.36699 22.2332 2.41721 20.8221 1.71766 19.1998C1.01721 17.5776 0.666992 15.8443 0.666992 13.9998C0.666992 12.1554 1.01721 10.4221 1.71766 8.79984C2.41721 7.17762 3.36699 5.7665 4.56699 4.5665C5.76699 3.3665 7.1781 2.41628 8.80033 1.71584C10.4225 1.01628 12.1559 0.666504 14.0003 0.666504C15.8448 0.666504 17.5781 1.01628 19.2003 1.71584C20.8225 2.41628 22.2337 3.3665 23.4337 4.5665C24.6337 5.7665 25.5834 7.17762 26.283 8.79984C26.9834 10.4221 27.3337 12.1554 27.3337 13.9998C27.3337 15.8443 26.9834 17.5776 26.283 19.1998C25.5834 20.8221 24.6337 22.2332 23.4337 23.4332C22.2337 24.6332 20.8225 25.5829 19.2003 26.2825C17.5781 26.9829 15.8448 27.3332 14.0003 27.3332Z" fill="#101010"/>
</svg>
