<svg width="24" height="24" viewBox="0 0 24 24" fill="none" xmlns="http://www.w3.org/2000/svg">
<g clip-path="url(#clip0_37_1644)">
<path d="M17.9925 8.05494C17.6231 7.66541 17.0072 7.64825 16.6171 8.01861L10.4056 13.9093L7.44295 10.8675C7.06772 10.4825 6.45248 10.4741 6.06717 10.8493C5.68219 11.2243 5.67408 11.8401 6.04898 12.2251L9.68142 15.9546C9.87178 16.1501 10.1248 16.2487 10.3784 16.2487C10.6191 16.2487 10.8597 16.1598 11.0482 15.9818L17.9563 9.43044C18.3461 9.06069 18.3626 8.4448 17.9925 8.05494Z" fill="#101010"/>
<path d="M12 0C5.38312 0 0 5.38312 0 12C0 18.6169 5.38312 24 12 24C18.6169 24 24 18.6169 24 12C24 5.38312 18.6169 0 12 0ZM12 22.0541C6.45633 22.0541 1.94592 17.544 1.94592 12C1.94592 6.45633 6.45628 1.94592 12 1.94592C17.544 1.94592 22.0541 6.45628 22.0541 12C22.0541 17.544 17.544 22.0541 12 22.0541Z" fill="#101010"/>
</g>
<defs>
<clipPath id="clip0_37_1644">
<rect width="24" height="24" fill="white"/>
</clipPath>
</defs>
</svg>
